<mxfile host="65bd71144e">
    <diagram id="b0cUgEnMSGRHgMmwl2PT" name="Page-1">
        <mxGraphModel dx="629" dy="1478" grid="1" gridSize="10" guides="1" tooltips="1" connect="1" arrows="1" fold="1" page="1" pageScale="1" pageWidth="1100" pageHeight="850" math="0" shadow="0">
            <root>
                <mxCell id="0"/>
                <mxCell id="1" parent="0"/>
                <mxCell id="auth_container" value="Authentication" style="swimlane;whiteSpace=wrap;html=1;startSize=23;" vertex="1" parent="1">
                    <mxGeometry x="40" y="40" width="160" height="120" as="geometry"/>
                </mxCell>
                <mxCell id="login" value="Login" style="rounded=1;whiteSpace=wrap;html=1;" vertex="1" parent="auth_container">
                    <mxGeometry x="20" y="40" width="120" height="30" as="geometry"/>
                </mxCell>
                <mxCell id="register" value="Register" style="rounded=1;whiteSpace=wrap;html=1;" vertex="1" parent="auth_container">
                    <mxGeometry x="20" y="80" width="120" height="30" as="geometry"/>
                </mxCell>
                <mxCell id="data_collection" value="Data Collection" style="swimlane;whiteSpace=wrap;html=1;" vertex="1" parent="1">
                    <mxGeometry x="40" y="200" width="160" height="160" as="geometry"/>
                </mxCell>
                <mxCell id="web_widget" value="Web Widget" style="rounded=1;whiteSpace=wrap;html=1;" vertex="1" parent="data_collection">
                    <mxGeometry x="20" y="40" width="120" height="30" as="geometry"/>
                </mxCell>
                <mxCell id="csv_import" value="CSV Import" style="rounded=1;whiteSpace=wrap;html=1;" vertex="1" parent="data_collection">
                    <mxGeometry x="20" y="80" width="120" height="30" as="geometry"/>
                </mxCell>
                <mxCell id="webhooks" value="Webhooks" style="rounded=1;whiteSpace=wrap;html=1;" vertex="1" parent="data_collection">
                    <mxGeometry x="20" y="120" width="120" height="30" as="geometry"/>
                </mxCell>
                <mxCell id="dashboard" value="Dashboard" style="swimlane;whiteSpace=wrap;html=1;" vertex="1" parent="1">
                    <mxGeometry x="280" y="40" width="200" height="320" as="geometry"/>
                </mxCell>
                <mxCell id="projects" value="Projects View" style="rounded=1;whiteSpace=wrap;html=1;" vertex="1" parent="dashboard">
                    <mxGeometry x="20" y="40" width="160" height="40" as="geometry"/>
                </mxCell>
                <mxCell id="users" value="Users View" style="rounded=1;whiteSpace=wrap;html=1;" vertex="1" parent="dashboard">
                    <mxGeometry x="20" y="100" width="160" height="40" as="geometry"/>
                </mxCell>
                <mxCell id="selection" value="User Selection" style="rounded=1;whiteSpace=wrap;html=1;" vertex="1" parent="dashboard">
                    <mxGeometry x="20" y="160" width="160" height="40" as="geometry"/>
                </mxCell>
                <mxCell id="queue" value="Automation Queue" style="rounded=1;whiteSpace=wrap;html=1;" vertex="1" parent="dashboard">
                    <mxGeometry x="20" y="220" width="160" height="40" as="geometry"/>
                </mxCell>
                <mxCell id="status" value="Status Monitor" style="rounded=1;whiteSpace=wrap;html=1;" vertex="1" parent="dashboard">
                    <mxGeometry x="20" y="270" width="160" height="40" as="geometry"/>
                </mxCell>
                <mxCell id="action_panel" value="Action Panel" style="swimlane;whiteSpace=wrap;html=1;" vertex="1" parent="1">
                    <mxGeometry x="560" y="20" width="180" height="200" as="geometry"/>
                </mxCell>
                <mxCell id="email" value="Email Sequence" style="rounded=1;whiteSpace=wrap;html=1;" vertex="1" parent="action_panel">
                    <mxGeometry x="20" y="40" width="140" height="30" as="geometry"/>
                </mxCell>
                <mxCell id="blog" value="Blog Publisher" style="rounded=1;whiteSpace=wrap;html=1;" vertex="1" parent="action_panel">
                    <mxGeometry x="20" y="80" width="140" height="30" as="geometry"/>
                </mxCell>
                <mxCell id="sms" value="SMS Campaign" style="rounded=1;whiteSpace=wrap;html=1;" vertex="1" parent="action_panel">
                    <mxGeometry x="20" y="120" width="140" height="30" as="geometry"/>
                </mxCell>
                <mxCell id="custom" value="Custom Webhook" style="rounded=1;whiteSpace=wrap;html=1;" vertex="1" parent="action_panel">
                    <mxGeometry x="20" y="160" width="140" height="30" as="geometry"/>
                </mxCell>
                <mxCell id="automation_builder" value="Automation Builder" style="swimlane;whiteSpace=wrap;html=1;" vertex="1" parent="1">
                    <mxGeometry x="560" y="300" width="180" height="160" as="geometry"/>
                </mxCell>
                <mxCell id="blocks" value="Block Editor" style="rounded=1;whiteSpace=wrap;html=1;" vertex="1" parent="automation_builder">
                    <mxGeometry x="20" y="40" width="140" height="30" as="geometry"/>
                </mxCell>
                <mxCell id="triggers" value="Trigger Setup" style="rounded=1;whiteSpace=wrap;html=1;" vertex="1" parent="automation_builder">
                    <mxGeometry x="20" y="80" width="140" height="30" as="geometry"/>
                </mxCell>
                <mxCell id="workflow_map" value="n8n Workflow Map" style="rounded=1;whiteSpace=wrap;html=1;" vertex="1" parent="automation_builder">
                    <mxGeometry x="20" y="120" width="140" height="30" as="geometry"/>
                </mxCell>
                <mxCell id="automation_engine" value="Automation Engine (n8n)" style="swimlane;whiteSpace=wrap;html=1;" vertex="1" parent="1">
                    <mxGeometry x="820" y="90" width="200" height="380" as="geometry"/>
                </mxCell>
                <mxCell id="workflows" value="Configured Workflows" style="rounded=1;whiteSpace=wrap;html=1;" vertex="1" parent="automation_engine">
                    <mxGeometry x="20" y="40" width="160" height="40" as="geometry"/>
                </mxCell>
                <mxCell id="2" style="edgeStyle=none;html=1;exitX=0.75;exitY=1;exitDx=0;exitDy=0;" edge="1" parent="automation_engine" source="webhook_listeners" target="queue_processor">
                    <mxGeometry relative="1" as="geometry"/>
                </mxCell>
                <mxCell id="webhook_listeners" value="Webhook Listeners" style="rounded=1;whiteSpace=wrap;html=1;" vertex="1" parent="automation_engine">
                    <mxGeometry x="20" y="100" width="160" height="40" as="geometry"/>
                </mxCell>
                <mxCell id="queue_processor" value="Queue Processor" style="rounded=1;whiteSpace=wrap;html=1;" vertex="1" parent="automation_engine">
                    <mxGeometry x="20" y="160" width="160" height="40" as="geometry"/>
                </mxCell>
                <mxCell id="status_updates" value="Status Updates" style="rounded=1;whiteSpace=wrap;html=1;" vertex="1" parent="automation_engine">
                    <mxGeometry x="20" y="220" width="160" height="40" as="geometry"/>
                </mxCell>
                <mxCell id="ai_processor" value="AI Processing" style="rounded=1;whiteSpace=wrap;html=1;" vertex="1" parent="automation_engine">
                    <mxGeometry x="20" y="280" width="160" height="40" as="geometry"/>
                </mxCell>
                <mxCell id="error_handling" value="Error Handling" style="rounded=1;whiteSpace=wrap;html=1;" vertex="1" parent="automation_engine">
                    <mxGeometry x="20" y="330" width="160" height="40" as="geometry"/>
                </mxCell>
                <mxCell id="auth_to_dash" value="" style="endArrow=classic;html=1;exitX=1;exitY=0.5;exitDx=0;exitDy=0;" edge="1" parent="1" source="auth_container">
                    <mxGeometry width="50" height="50" relative="1" as="geometry">
                        <mxPoint x="280" y="100" as="targetPoint"/>
                    </mxGeometry>
                </mxCell>
                <mxCell id="data_to_dash" value="" style="endArrow=classic;html=1;exitX=1;exitY=0.5;exitDx=0;exitDy=0;entryX=0;entryY=0.75;entryDx=0;entryDy=0;" edge="1" parent="1" source="data_collection" target="dashboard">
                    <mxGeometry width="50" height="50" relative="1" as="geometry"/>
                </mxCell>
                <mxCell id="dash_to_action" value="" style="endArrow=classic;html=1;exitX=1;exitY=0.25;exitDx=0;exitDy=0;entryX=0;entryY=0.5;entryDx=0;entryDy=0;" edge="1" parent="1" source="dashboard" target="action_panel">
                    <mxGeometry width="50" height="50" relative="1" as="geometry"/>
                </mxCell>
                <mxCell id="action_to_engine" value="" style="endArrow=classic;html=1;exitX=1;exitY=0.5;exitDx=0;exitDy=0;" edge="1" parent="1">
                    <mxGeometry width="50" height="50" relative="1" as="geometry">
                        <mxPoint x="740" y="125" as="sourcePoint"/>
                        <mxPoint x="810" y="125" as="targetPoint"/>
                    </mxGeometry>
                </mxCell>
                <mxCell id="builder_to_engine" value="" style="endArrow=classic;html=1;exitX=1;exitY=0.5;exitDx=0;exitDy=0;" edge="1" parent="1" source="automation_builder">
                    <mxGeometry width="50" height="50" relative="1" as="geometry">
                        <mxPoint x="820" y="380" as="targetPoint"/>
                    </mxGeometry>
                </mxCell>
                <mxCell id="engine_to_dash" value="" style="endArrow=classic;html=1;exitX=0;exitY=0.5;exitDx=0;exitDy=0;entryX=1;entryY=0.75;entryDx=0;entryDy=0;" edge="1" parent="1" source="automation_engine" target="dashboard">
                    <mxGeometry width="50" height="50" relative="1" as="geometry"/>
                </mxCell>
                <mxCell id="4" value="Metaswap .xyz" style="rounded=0;whiteSpace=wrap;html=1;" vertex="1" parent="1">
                    <mxGeometry x="450" y="-300" width="120" height="60" as="geometry"/>
                </mxCell>
                <mxCell id="5" value="&amp;nbsp; &amp;nbsp;AGENTS.md: This project is an automations UI terminal aimed at powering private access to partners to set up theri own workflows in&amp;nbsp;" style="rounded=0;whiteSpace=wrap;html=1;align=left;" vertex="1" parent="1">
                    <mxGeometry x="660" y="-290" width="300" height="170" as="geometry"/>
                </mxCell>
            </root>
        </mxGraphModel>
    </diagram>
</mxfile>